# xmcd
#
# Track frame offsets: 
#        150
#        18460
#        37442
#        43880
#        52297
#        58292
#        64547
#
# Disc length: 951 seconds
#
# Revision: 3
# Processed by: cddbd v1.5.2PL0 Copyright (c) Steve Scherf et al.
# Submitted via: ExactAudioCopyFreeDBPlugin 1.0
#
DISCID=6f03b507
DTITLE=Blu Cantrell - Hit 'Em Up Style (Oops!) (Single)
DYEAR=2001
DGENRE=R&B
TTITLE0=Hit 'Em Up Style (Oops!) (Radio Mix)
TTITLE1=Hit 'Em Up Style (Oops!) (Instrumental)
TTITLE2=Till I'm Gone (Snippet)
TTITLE3=I'll Find A Way (Snippet)
TTITLE4=The One (Snippet)
TTITLE5=U Must B Crazy (Snippet)
TTITLE6=Waste My Time Feat. L.O. (Snippet)
EXTD=YEAR: 2001
EXTT0=
EXTT1=
EXTT2=
EXTT3=
EXTT4=
EXTT5=
EXTT6=
PLAYORDER=
